<svg width="360" height="720" viewBox="0 0 360 720" xmlns="http://www.w3.org/2000/svg">
  <!-- Background -->
  <rect width="360" height="720" fill="#FFFFFF"/>
  
  <!-- Top App Bar -->
  <rect width="360" height="56" fill="#2E7D32"/>
  <text x="160" y="35" font-family="Nunito" font-size="18" font-weight="600" fill="white" text-anchor="middle">Add Measurement</text>
  <!-- Back Arrow -->
  <path d="M24 28 L36 16 M24 28 L36 40" stroke="white" stroke-width="2" stroke-linecap="round" stroke-linejoin="round"/>
  
  <!-- Child Info Card -->
  <rect x="16" y="72" width="328" height="44" rx="12" fill="white"/>
  <rect x="16" y="72" width="328" height="44" rx="12" stroke="#E0E0E0" stroke-width="1" fill="none"/>
  <text x="32" y="100" font-family="Nunito" font-size="16" font-weight="600" fill="#212121">Amir, 2 years 3 months</text>
  
  <!-- Measurement Type Section -->
  <text x="16" y="136" font-family="Open Sans" font-size="16" font-weight="400" fill="#212121">Measurement Type</text>
  <rect x="16" y="146" width="328" height="48" rx="8" fill="white"/>
  <rect x="16" y="146" width="328" height="48" rx="8" stroke="#E0E0E0" stroke-width="1" fill="none"/>
  
  <!-- Radio Buttons -->
  <circle cx="42" cy="170" r="8" fill="#2E7D32"/>
  <circle cx="42" cy="170" r="4" fill="white"/>
  <text x="58" y="174" font-family="Open Sans" font-size="14" font-weight="400" fill="#212121">Height</text>
  
  <circle cx="118" cy="170" r="8" stroke="#9E9E9E" stroke-width="2" fill="white"/>
  <text x="134" y="174" font-family="Open Sans" font-size="14" font-weight="400" fill="#616161">Weight</text>
  
  <circle cx="194" cy="170" r="8" stroke="#9E9E9E" stroke-width="2" fill="white"/>
  <text x="210" y="174" font-family="Open Sans" font-size="14" font-weight="400" fill="#616161">Head</text>
  
  <circle cx="270" cy="170" r="8" stroke="#9E9E9E" stroke-width="2" fill="white"/>
  <text x="286" y="174" font-family="Open Sans" font-size="14" font-weight="400" fill="#616161">Multiple</text>
  
  <!-- Date Section -->
  <text x="16" y="214" font-family="Open Sans" font-size="16" font-weight="400" fill="#212121">Date</text>
  <rect x="16" y="224" width="328" height="56" rx="8" fill="white"/>
  <rect x="16" y="224" width="328" height="56" rx="8" stroke="#E0E0E0" stroke-width="1" fill="none"/>
  <text x="32" y="258" font-family="Open Sans" font-size="16" font-weight="400" fill="#212121">Today (May 15, 2023)</text>
  
  <!-- Calendar Icon -->
  <rect x="304" y="240" width="24" height="24" fill="white"/>
  <path d="M308 236 L308 232 M324 236 L324 232 M306 244 L326 244 M306 240 L326 240 M306 240 L306 256 L326 256 L326 240" stroke="#616161" stroke-width="1.5" fill="none"/>
  
  <!-- Height Input Section -->
  <text x="16" y="300" font-family="Open Sans" font-size="16" font-weight="400" fill="#212121">Height</text>
  <rect x="16" y="310" width="328" height="56" rx="8" fill="white"/>
  <rect x="16" y="310" width="328" height="56" rx="8" stroke="#2E7D32" stroke-width="2" fill="none"/>
  <text x="32" y="346" font-family="Open Sans" font-size="20" font-weight="400" fill="#212121">85</text>
  
  <!-- Unit Dropdown -->
  <text x="290" y="346" font-family="Open Sans" font-size="16" font-weight="400" fill="#212121">cm ▼</text>
  
  <!-- Measuring Tips Card -->
  <rect x="16" y="380" width="328" height="120" rx="8" fill="white"/>
  <rect x="16" y="380" width="328" height="120" rx="8" stroke="#E0E0E0" stroke-width="1" fill="none"/>
  <text x="32" y="404" font-family="Open Sans" font-size="14" font-weight="400" fill="#212121">ℹ️ Measuring tips:</text>
  <circle cx="24" cy="424" r="3" fill="#616161"/>
  <text x="32" y="428" font-family="Open Sans" font-size="14" font-weight="400" fill="#616161">Measure without shoes</text>
  <circle cx="24" cy="448" r="3" fill="#616161"/>
  <text x="32" y="452" font-family="Open Sans" font-size="14" font-weight="400" fill="#616161">Stand straight against a wall</text>
  <circle cx="24" cy="472" r="3" fill="#616161"/>
  <text x="32" y="476" font-family="Open Sans" font-size="14" font-weight="400" fill="#616161">Keep heels, buttocks, shoulders against the wall</text>
  
  <!-- View Instructions Link -->
  <text x="140" y="500" font-family="Nunito" font-size="14" font-weight="600" fill="#2E7D32" text-anchor="middle">View detailed instructions</text>
  
  <!-- Additional Information Section -->
  <text x="16" y="530" font-family="Nunito" font-size="16" font-weight="600" fill="#212121">Additional Information</text>
  <rect x="16" y="540" width="328" height="56" rx="8" fill="white"/>
  <rect x="16" y="540" width="328" height="56" rx="8" stroke="#E0E0E0" stroke-width="1" fill="none"/>
  <text x="32" y="564" font-family="Open Sans" font-size="14" font-weight="400" fill="#212121">Measured by</text>
  
  <!-- Radio Buttons -->
  <circle cx="142" cy="564" r="8" fill="#2E7D32"/>
  <circle cx="142" cy="564" r="4" fill="white"/>
  <text x="158" y="568" font-family="Open Sans" font-size="14" font-weight="400" fill="#212121">Parent</text>
  
  <circle cx="218" cy="564" r="8" stroke="#9E9E9E" stroke-width="2" fill="white"/>
  <text x="234" y="568" font-family="Open Sans" font-size="14" font-weight="400" fill="#616161">Doctor</text>
  
  <circle cx="294" cy="564" r="8" stroke="#9E9E9E" stroke-width="2" fill="white"/>
  <text x="310" y="568" font-family="Open Sans" font-size="14" font-weight="400" fill="#616161">Other</text>
  
  <!-- Notes Section -->
  <rect x="16" y="610" width="328" height="80" rx="8" fill="white"/>
  <rect x="16" y="610" width="328" height="80" rx="8" stroke="#E0E0E0" stroke-width="1" fill="none"/>
  <text x="32" y="634" font-family="Open Sans" font-size="14" font-weight="400" fill="#616161">Notes (optional)</text>
  
  <!-- Preview & Save Button -->
  <rect x="16" y="704" width="328" height="48" rx="8" fill="#2E7D32"/>
  <text x="180" y="736" font-family="Nunito" font-size="14" font-weight="600" fill="white" text-anchor="middle">Preview &amp; Save</text>
</svg>