<svg width="360" height="720" viewBox="0 0 360 720" xmlns="http://www.w3.org/2000/svg">
  <!-- Background -->
  <rect width="360" height="720" fill="#FFFFFF"/>
  
  <!-- Top App Bar -->
  <rect width="360" height="56" fill="#2E7D32"/>
  <text x="130" y="35" font-family="Nunito" font-size="18" font-weight="600" fill="white">Growth Tracking</text>
  <circle cx="335" cy="28" r="14" fill="white" fill-opacity="0.2"/>
  <path d="M335 22 A6 6 0 0 1 341 28 A6 6 0 0 1 335 34 A6 6 0 0 1 329 28 A6 6 0 0 1 335 22 Z" stroke="white" stroke-width="2" fill="none"/>
  <circle cx="335" cy="28" r="3" fill="white"/>
  <!-- Menu Icon -->
  <path d="M24 20H44M24 28H44M24 36H44" stroke="white" stroke-width="2" stroke-linecap="round"/>
  
  <!-- Child Info Card -->
  <rect x="16" y="72" width="328" height="60" rx="12" fill="white"/>
  <rect x="16" y="72" width="328" height="60" rx="12" stroke="#E0E0E0" stroke-width="1" fill="none"/>
  <text x="32" y="96" font-family="Nunito" font-size="18" font-weight="600" fill="#212121">Amir, 2 years 3 months</text>
  <text x="32" y="116" font-family="Open Sans" font-size="12" font-weight="400" fill="#616161">Last measured: Today</text>
  
  <!-- Current Measurements Card -->
  <rect x="16" y="148" width="328" height="110" rx="12" fill="white"/>
  <rect x="16" y="148" width="328" height="110" rx="12" stroke="#E0E0E0" stroke-width="1" fill="none"/>
  <text x="32" y="172" font-family="Nunito" font-size="18" font-weight="600" fill="#212121">Current Measurements</text>
  
  <!-- Height Measurement Value Card -->
  <rect x="32" y="182" width="90" height="60" rx="8" fill="white"/>
  <rect x="32" y="182" width="90" height="60" rx="8" stroke="#E0E0E0" stroke-width="1" fill="none"/>
  <text x="77" y="202" font-family="Open Sans" font-size="12" font-weight="400" fill="#616161" text-anchor="middle">Height</text>
  <text x="77" y="222" font-family="Nunito" font-size="18" font-weight="600" fill="#2E7D32" text-anchor="middle">85 cm</text>
  <text x="77" y="238" font-family="Open Sans" font-size="12" font-weight="400" fill="#616161" text-anchor="middle">(45%)</text>
  
  <!-- Weight Measurement Value Card -->
  <rect x="134" y="182" width="90" height="60" rx="8" fill="white"/>
  <rect x="134" y="182" width="90" height="60" rx="8" stroke="#E0E0E0" stroke-width="1" fill="none"/>
  <text x="179" y="202" font-family="Open Sans" font-size="12" font-weight="400" fill="#616161" text-anchor="middle">Weight</text>
  <text x="179" y="222" font-family="Nunito" font-size="18" font-weight="600" fill="#2E7D32" text-anchor="middle">12 kg</text>
  <text x="179" y="238" font-family="Open Sans" font-size="12" font-weight="400" fill="#616161" text-anchor="middle">(50%)</text>
  
  <!-- Head Measurement Value Card -->
  <rect x="236" y="182" width="90" height="60" rx="8" fill="white"/>
  <rect x="236" y="182" width="90" height="60" rx="8" stroke="#E0E0E0" stroke-width="1" fill="none"/>
  <text x="281" y="202" font-family="Open Sans" font-size="12" font-weight="400" fill="#616161" text-anchor="middle">Head</text>
  <text x="281" y="222" font-family="Nunito" font-size="18" font-weight="600" fill="#2E7D32" text-anchor="middle">48 cm</text>
  <text x="281" y="238" font-family="Open Sans" font-size="12" font-weight="400" fill="#616161" text-anchor="middle">(52%)</text>
  
  <!-- Growth Status Card -->
  <rect x="16" y="274" width="328" height="150" rx="12" fill="white"/>
  <rect x="16" y="274" width="328" height="150" rx="12" stroke="#E0E0E0" stroke-width="1" fill="none"/>
  <text x="32" y="298" font-family="Nunito" font-size="18" font-weight="600" fill="#212121">Growth Status</text>
  
  <!-- Growth Status Indicators -->
  <text x="32" y="328" font-family="Open Sans" font-size="14" font-weight="400" fill="#212121">Height-for-age: </text>
  <text x="140" y="328" font-family="Open Sans" font-size="14" font-weight="400" fill="#4CAF50">Normal</text>
  <circle cx="170" cy="324" r="8" fill="#4CAF50" fill-opacity="0.2"/>
  <path d="M166 324L169 327L174 322" stroke="#4CAF50" stroke-width="2" stroke-linecap="round" stroke-linejoin="round"/>
  
  <text x="32" y="356" font-family="Open Sans" font-size="14" font-weight="400" fill="#212121">Weight-for-age: </text>
  <text x="140" y="356" font-family="Open Sans" font-size="14" font-weight="400" fill="#4CAF50">Normal</text>
  <circle cx="170" cy="352" r="8" fill="#4CAF50" fill-opacity="0.2"/>
  <path d="M166 352L169 355L174 350" stroke="#4CAF50" stroke-width="2" stroke-linecap="round" stroke-linejoin="round"/>
  
  <text x="32" y="384" font-family="Open Sans" font-size="14" font-weight="400" fill="#212121">Weight-for-height: </text>
  <text x="160" y="384" font-family="Open Sans" font-size="14" font-weight="400" fill="#4CAF50">Normal</text>
  <circle cx="190" cy="380" r="8" fill="#4CAF50" fill-opacity="0.2"/>
  <path d="M186 380L189 383L194 378" stroke="#4CAF50" stroke-width="2" stroke-linecap="round" stroke-linejoin="round"/>
  
  <text x="32" y="412" font-family="Nunito" font-size="16" font-weight="600" fill="#212121">Overall: On track 👍</text>
  
  <!-- View Detailed Assessment Button -->
  <rect x="32" y="392" width="170" height="36" rx="4" fill="white"/>
  <text x="117" y="416" font-family="Nunito" font-size="14" font-weight="600" fill="#2E7D32" text-anchor="middle">View Detailed Assessment</text>
  
  <!-- Growth Charts Card -->
  <rect x="16" y="440" width="328" height="170" rx="12" fill="white"/>
  <rect x="16" y="440" width="328" height="170" rx="12" stroke="#E0E0E0" stroke-width="1" fill="none"/>
  <text x="32" y="464" font-family="Nunito" font-size="18" font-weight="600" fill="#212121">Growth Charts</text>
  
  <!-- Chart Preview -->
  <rect x="32" y="474" width="296" height="90" rx="4" fill="#F5F5F5"/>
  
  <!-- Simplified Chart Visualization -->
  <path d="M32 544 L328 544" stroke="#E0E0E0" stroke-width="1"/>
  <path d="M32 524 L328 524" stroke="#E0E0E0" stroke-width="1" stroke-dasharray="2,2"/>
  <path d="M32 504 L328 504" stroke="#E0E0E0" stroke-width="1" stroke-dasharray="2,2"/>
  <path d="M32 484 L328 484" stroke="#E0E0E0" stroke-width="1"/>
  
  <!-- Chart Lines -->
  <path d="M42 534 C80 530, 120 520, 160 514 C200 508, 240 500, 280 490 C290 488, 300 486, 310 484" stroke="#2E7D32" stroke-width="2" fill="none"/>
  <path d="M42 524 C80 518, 120 510, 160 502 C200 494, 240 486, 280 478 C290 476, 300 474, 310 472" stroke="#C8E6C9" stroke-width="1" fill="none"/>
  <path d="M42 544 C80 538, 120 530, 160 522 C200 514, 240 506, 280 498 C290 496, 300 494, 310 492" stroke="#C8E6C9" stroke-width="1" fill="none"/>
  
  <!-- Data Points -->
  <circle cx="160" cy="514" r="4" fill="#2E7D32"/>
  <circle cx="220" cy="504" r="4" fill="#2E7D32"/>
  <circle cx="280" cy="490" r="4" fill="#2E7D32"/>
  
  <!-- Chart Type Selector -->
  <circle cx="42" cy="574" r="8" fill="#2E7D32"/>
  <circle cx="42" cy="574" r="4" fill="white"/>
  <text x="58" y="578" font-family="Open Sans" font-size="14" font-weight="400" fill="#212121">Height</text>
  
  <circle cx="108" cy="574" r="8" stroke="#9E9E9E" stroke-width="2" fill="white"/>
  <text x="124" y="578" font-family="Open Sans" font-size="14" font-weight="400" fill="#616161">Weight</text>
  
  <circle cx="174" cy="574" r="8" stroke="#9E9E9E" stroke-width="2" fill="white"/>
  <text x="190" y="578" font-family="Open Sans" font-size="14" font-weight="400" fill="#616161">BMI</text>
  
  <circle cx="230" cy="574" r="8" stroke="#9E9E9E" stroke-width="2" fill="white"/>
  <text x="246" y="578" font-family="Open Sans" font-size="14" font-weight="400" fill="#616161">Head</text>
  
  <!-- View Full Charts Button -->
  <rect x="32" y="590" width="120" height="36" rx="4" fill="white"/>
  <text x="92" y="614" font-family="Nunito" font-size="14" font-weight="600" fill="#2E7D32" text-anchor="middle">View Full Charts</text>
  
  <!-- Add New Measurement Button -->
  <rect x="16" y="626" width="328" height="48" rx="8" fill="#2E7D32"/>
  <text x="180" y="658" font-family="Nunito" font-size="14" font-weight="600" fill="white" text-anchor="middle">+ Add New Measurement</text>
  
  <!-- Bottom Navigation Bar -->
  <rect x="0" y="672" width="360" height="56" fill="white"/>
  <line x1="0" y1="672" x2="360" y2="672" stroke="#E0E0E0" stroke-width="1"/>
  
  <!-- Home Icon -->
  <path d="M72 690 L72 712 L88 712 L88 700 L96 700 L96 712 L112 712 L112 690 L92 674 L72 690Z" fill="#9E9E9E"/>
  <text x="92" y="722" font-family="Open Sans" font-size="10" font-weight="400" fill="#9E9E9E" text-anchor="middle">Home</text>
  
  <!-- Growth Icon (Active) -->
  <path d="M152 712 L152 684 L168 684 L168 712 L152 712Z M172 712 L172 674 L188 674 L188 712 L172 712Z M132 712 L132 694 L148 694 L148 712 L132 712Z" fill="#2E7D32"/>
  <text x="160" y="722" font-family="Open Sans" font-size="10" font-weight="400" fill="#2E7D32" text-anchor="middle">Growth</text>
  
  <!-- Scanner Icon -->
  <circle cx="228" cy="694" r="14" stroke="#9E9E9E" stroke-width="2" fill="none"/>
  <path d="M228 684 L228 704 M218 694 L238 694" stroke="#9E9E9E" stroke-width="2"/>
  <text x="228" y="722" font-family="Open Sans" font-size="10" font-weight="400" fill="#9E9E9E" text-anchor="middle">Scanner</text>
  
  <!-- Education Icon -->
  <path d="M296 684 L276 690 L296 696 L316 690 L296 684Z M286 698 L286 708 L306 708 L306 698" stroke="#9E9E9E" stroke-width="2" fill="none"/>
  <text x="296" y="722" font-family="Open Sans" font-size="10" font-weight="400" fill="#9E9E9E" text-anchor="middle">Learn</text>
</svg>