<svg width="360" height="720" viewBox="0 0 360 720" xmlns="http://www.w3.org/2000/svg">
  <!-- Background -->
  <rect width="360" height="720" fill="#FFFFFF"/>
  
  <!-- Top App Bar -->
  <rect width="360" height="56" fill="#2E7D32"/>
  <text x="160" y="35" font-family="Nunito" font-size="18" font-weight="600" fill="white" text-anchor="middle">Measurement History</text>
  <!-- Back Arrow -->
  <path d="M24 28 L36 16 M24 28 L36 40" stroke="white" stroke-width="2" stroke-linecap="round" stroke-linejoin="round"/>
  
  <!-- Child Info Card -->
  <rect x="16" y="72" width="328" height="44" rx="12" fill="white"/>
  <rect x="16" y="72" width="328" height="44" rx="12" stroke="#E0E0E0" stroke-width="1" fill="none"/>
  <text x="32" y="100" font-family="Nunito" font-size="16" font-weight="600" fill="#212121">Amir, 2 years 3 months</text>
  
  <!-- Filter Controls -->
  <text x="16" y="140" font-family="Open Sans" font-size="14" font-weight="400" fill="#616161">Filter:</text>
  
  <circle cx="70" cy="138" r="8" fill="#2E7D32"/>
  <circle cx="70" cy="138" r="4" fill="white"/>
  <text x="86" y="142" font-family="Open Sans" font-size="14" font-weight="400" fill="#212121">All</text>
  
  <circle cx="120" cy="138" r="8" stroke="#9E9E9E" stroke-width="2" fill="white"/>
  <text x="136" y="142" font-family="Open Sans" font-size="14" font-weight="400" fill="#616161">Height</text>
  
  <circle cx="190" cy="138" r="8" stroke="#9E9E9E" stroke-width="2" fill="white"/>
  <text x="206" y="142" font-family="Open Sans" font-size="14" font-weight="400" fill="#616161">Weight</text>
  
  <circle cx="260" cy="138" r="8" stroke="#9E9E9E" stroke-width="2" fill="white"/>
  <text x="276" y="142" font-family="Open Sans" font-size="14" font-weight="400" fill="#616161">Head</text>
  
  <!-- Measurement Entry Cards -->
  <!-- Card 1 -->
  <rect x="16" y="160" width="328" height="100" rx="12" fill="white"/>
  <rect x="16" y="160" width="328" height="100" rx="12" stroke="#E0E0E0" stroke-width="1" fill="none"/>
  
  <text x="32" y="184" font-family="Nunito" font-size="16" font-weight="600" fill="#212121">May 15, 2023</text>
  <text x="32" y="212" font-family="Open Sans" font-size="14" font-weight="400" fill="#212121">Height: 85 cm (45%)</text>
  <text x="32" y="236" font-family="Open Sans" font-size="12" font-weight="400" fill="#616161">Measured by: Parent</text>
  
  <!-- View Details Button -->
  <rect x="32" y="244" width="100" height="28" rx="4" fill="white"/>
  <text x="82" y="264" font-family="Nunito" font-size="14" font-weight="600" fill="#2E7D32" text-anchor="middle">View Details</text>
  
  <!-- Card 2 -->
  <rect x="16" y="270" width="328" height="100" rx="12" fill="white"/>
  <rect x="16" y="270" width="328" height="100" rx="12" stroke="#E0E0E0" stroke-width="1" fill="none"/>
  
  <text x="32" y="294" font-family="Nunito" font-size="16" font-weight="600" fill="#212121">May 15, 2023</text>
  <text x="32" y="322" font-family="Open Sans" font-size="14" font-weight="400" fill="#212121">Weight: 12 kg (50%)</text>
  <text x="32" y="346" font-family="Open Sans" font-size="12" font-weight="400" fill="#616161">Measured by: Parent</text>
  
  <!-- View Details Button -->
  <rect x="32" y="354" width="100" height="28" rx="4" fill="white"/>
  <text x="82" y="374" font-family="Nunito" font-size="14" font-weight="600" fill="#2E7D32" text-anchor="middle">View Details</text>
  
  <!-- Card 3 -->
  <rect x="16" y="380" width="328" height="100" rx="12" fill="white"/>
  <rect x="16" y="380" width="328" height="100" rx="12" stroke="#E0E0E0" stroke-width="1" fill="none"/>
  
  <text x="32" y="404" font-family="Nunito" font-size="16" font-weight="600" fill="#212121">February 12, 2023</text>
  <text x="32" y="432" font-family="Open Sans" font-size="14" font-weight="400" fill="#212121">Height: 83 cm (47%)</text>
  <text x="32" y="456" font-family="Open Sans" font-size="12" font-weight="400" fill="#616161">Measured by: Doctor</text>
  
  <!-- View Details Button -->
  <rect x="32" y="464" width="100" height="28" rx="4" fill="white"/>
  <text x="82" y="484" font-family="Nunito" font-size="14" font-weight="600" fill="#2E7D32" text-anchor="middle">View Details</text>
  
  <!-- Card 4 -->
  <rect x="16" y="490" width="328" height="100" rx="12" fill="white"/>
  <rect x="16" y="490" width="328" height="100" rx="12" stroke="#E0E0E0" stroke-width="1" fill="none"/>
  
  <text x="32" y="514" font-family="Nunito" font-size="16" font-weight="600" fill="#212121">February 12, 2023</text>
  <text x="32" y="542" font-family="Open Sans" font-size="14" font-weight="400" fill="#212121">Weight: 11.5 kg (52%)</text>
  <text x="32" y="566" font-family="Open Sans" font-size="12" font-weight="400" fill="#616161">Measured by: Doctor</text>
  
  <!-- View Details Button -->
  <rect x="32" y="574" width="100" height="28" rx="4" fill="white"/>
  <text x="82" y="594" font-family="Nunito" font-size="14" font-weight="600" fill="#2E7D32" text-anchor="middle">View Details</text>
  
  <!-- Add New Measurement Button -->
  <rect x="16" y="606" width="328" height="48" rx="8" fill="#2E7D32"/>
  <text x="180" y="638" font-family="Nunito" font-size="14" font-weight="600" fill="white" text-anchor="middle">+ Add New Measurement</text>
</svg>