<svg width="1000" height="1800" xmlns="http://www.w3.org/2000/svg" viewBox="0 0 1000 1800">
  <!-- Background -->
  <rect width="1000" height="1800" fill="#f8f9fa"/>
  <text x="500" y="50" font-family="Arial" font-size="24" text-anchor="middle" font-weight="bold">NutriGenius Food Scanning Flow</text>
  
  <!-- Dashboard with Food Scanning Option -->
  <rect x="50" y="100" width="250" height="450" fill="white" stroke="#5cb9a7" stroke-width="2" rx="15" ry="15"/>
  <text x="175" y="130" font-family="Arial" font-size="16" text-anchor="middle" font-weight="bold">Food &amp; Nutrition</text>
  
  <!-- Header with back button -->
  <circle cx="80" cy="130" r="15" fill="#f6f6f6"/>
  <text x="80" y="135" font-family="Arial" font-size="14" text-anchor="middle">←</text>
  
  <!-- Quick action buttons -->
  <text x="70" y="170" font-family="Arial" font-size="14" font-weight="bold">Quick Actions</text>
  
  <rect x="70" y="180" width="210" height="60" fill="#eaf5f3" rx="10" ry="10"/>
  <circle cx="105" cy="210" r="15" fill="#5cb9a7"/>
  <text x="105" y="215" font-family="Arial" font-size="14" text-anchor="middle" fill="white">📷</text>
  <text x="130" y="205" font-family="Arial" font-size="14" transform="translate(130,205)">Scan Food</text>
  <text x="130" y="225" font-family="Arial" font-size="12" fill="#888" transform="translate(130,225)">Analyze nutrition with camera</text>
  
  <rect x="70" y="250" width="210" height="60" fill="#f6f6f6" rx="10" ry="10"/>
  <circle cx="105" cy="280" r="15" fill="#eee"/>
  <text x="105" y="285" font-family="Arial" font-size="14" text-anchor="middle">🍎</text>
  <text x="130" y="275" font-family="Arial" font-size="14" transform="translate(130,275)">Log Meal</text>
  <text x="130" y="295" font-family="Arial" font-size="12" fill="#888" transform="translate(130,295)">Manually record food intake</text>
  
  <rect x="70" y="320" width="210" height="60" fill="#f6f6f6" rx="10" ry="10"/>
  <circle cx="105" cy="350" r="15" fill="#eee"/>
  <text x="105" y="355" font-family="Arial" font-size="14" text-anchor="middle">📊</text>
  <text x="130" y="345" font-family="Arial" font-size="14" transform="translate(130,345)">Nutrition Reports</text>
  <text x="130" y="365" font-family="Arial" font-size="12" fill="#888" transform="translate(130,365)">View insights and trends</text>
  
  <!-- Recent items -->
  <text x="70" y="400" font-family="Arial" font-size="14" font-weight="bold">Recent Items</text>
  
  <rect x="70" y="410" width="100" height="80" fill="#f6f6f6" rx="10" ry="10"/>
  <text x="120" y="455" font-family="Arial" font-size="12" text-anchor="middle">Oatmeal</text>
  <text x="120" y="470" font-family="Arial" font-size="10" text-anchor="middle" fill="#888">Breakfast</text>
  
  <rect x="180" y="410" width="100" height="80" fill="#f6f6f6" rx="10" ry="10"/>
  <text x="230" y="455" font-family="Arial" font-size="12" text-anchor="middle">Yogurt</text>
  <text x="230" y="470" font-family="Arial" font-size="10" text-anchor="middle" fill="#888">Snack</text>
  
  <!-- Bottom Nav -->
  <rect x="50" y="550" width="250" height="50" fill="#f6f6f6" rx="15" ry="15"/>
  <circle cx="100" cy="575" r="15" fill="#eee"/>
  <circle cx="175" cy="575" r="15" fill="#5cb9a7"/>
  <circle cx="250" cy="575" r="15" fill="#eee"/>
  
  <!-- Camera Viewfinder -->
  <rect x="350" y="100" width="250" height="450" fill="white" stroke="#5cb9a7" stroke-width="2" rx="15" ry="15"/>
  <text x="475" y="130" font-family="Arial" font-size="16" text-anchor="middle" font-weight="bold">Camera Viewfinder</text>
  
  <!-- Header with back button -->
  <circle cx="380" cy="130" r="15" fill="#f6f6f6"/>
  <text x="380" y="135" font-family="Arial" font-size="14" text-anchor="middle">←</text>
  
  <text x="475" y="165" font-family="Arial" font-size="12" text-anchor="middle">Center food item in frame</text>
  
  <!-- Camera viewfinder -->
  <rect x="370" y="180" width="210" height="250" fill="#111" rx="5" ry="5"/>
  <rect x="400" y="210" width="150" height="150" fill="none" stroke="#5cb9a7" stroke-width="2" rx="10" ry="10" stroke-dasharray="5,5"/>
  
  <!-- Camera controls -->
  <circle cx="475" cy="450" r="30" fill="#5cb9a7"/>
  <circle cx="475" cy="450" r="25" fill="white"/>
  
  <rect x="370" y="500" width="100" height="40" fill="#f6f6f6" rx="20" ry="20"/>
  <text x="420" y="525" font-family="Arial" font-size="12" text-anchor="middle">Gallery</text>
  
  <rect x="480" y="500" width="100" height="40" fill="#f6f6f6" rx="20" ry="20"/>
  <text x="530" y="525" font-family="Arial" font-size="12" text-anchor="middle">Flash: Off</text>
  
  <!-- Bottom Nav -->
  <rect x="350" y="550" width="250" height="50" fill="#f6f6f6" rx="15" ry="15"/>
  <circle cx="400" cy="575" r="15" fill="#eee"/>
  <circle cx="475" cy="575" r="15" fill="#5cb9a7"/>
  <circle cx="550" cy="575" r="15" fill="#eee"/>
  
  <!-- Processing Screen -->
  <rect x="650" y="100" width="250" height="450" fill="white" stroke="#5cb9a7" stroke-width="2" rx="15" ry="15"/>
  <text x="775" y="130" font-family="Arial" font-size="16" text-anchor="middle" font-weight="bold">Processing</text>
  
  <!-- Processing animation -->
  <rect x="680" y="160" width="190" height="190" fill="#f6f6f6" rx="10" ry="10"/>
  <text x="775" y="255" font-family="Arial" font-size="14" text-anchor="middle" font-style="italic">Captured Image</text>
  
  <circle cx="775" cy="380" r="30" fill="#eaf5f3"/>
  <path d="M 760 380 A 15 15 0 1 1 790 380" stroke="#5cb9a7" stroke-width="4" fill="none"/>
  
  <text x="775" y="430" font-family="Arial" font-size="14" text-anchor="middle">Analyzing nutrition information...</text>
  
  <!-- Cancel button -->
  <rect x="700" y="460" width="150" height="40" fill="#f6f6f6" rx="20" ry="20"/>
  <text x="775" y="485" font-family="Arial" font-size="14" text-anchor="middle">Cancel</text>
  
  <!-- Bottom Nav -->
  <rect x="650" y="550" width="250" height="50" fill="#f6f6f6" rx="15" ry="15"/>
  <circle cx="700" cy="575" r="15" fill="#eee"/>
  <circle cx="775" cy="575" r="15" fill="#5cb9a7"/>
  <circle cx="850" cy="575" r="15" fill="#eee"/>
  
  <!-- Recognition Results -->
  <rect x="50" y="650" width="250" height="450" fill="white" stroke="#5cb9a7" stroke-width="2" rx="15" ry="15"/>
  <text x="175" y="680" font-family="Arial" font-size="16" text-anchor="middle" font-weight="bold">Food Identified</text>
  
  <!-- Header with back button -->
  <circle cx="80" cy="680" r="15" fill="#f6f6f6"/>
  <text x="80" y="685" font-family="Arial" font-size="14" text-anchor="middle">←</text>
  
  <!-- Food image -->
  <rect x="70" y="700" width="210" height="150" fill="#f6f6f6" rx="10" ry="10"/>
  <text x="175" y="775" font-family="Arial" font-size="14" text-anchor="middle" font-style="italic">Image Thumbnail</text>
  
  <!-- Food options -->
  <text x="70" y="870" font-family="Arial" font-size="14" font-weight="bold">Select Food Item</text>
  
  <rect x="70" y="880" width="210" height="50" fill="#eaf5f3" rx="5" ry="5"/>
  <text x="90" y="910" font-family="Arial" font-size="14">Oatmeal, plain</text>
  <circle cx="260" cy="905" r="10" fill="#5cb9a7"/>
  <text x="260" y="910" font-family="Arial" font-size="14" text-anchor="middle" fill="white">✓</text>
  
  <rect x="70" y="940" width="210" height="50" fill="#fff" stroke="#eee" stroke-width="1" rx="5" ry="5"/>
  <text x="90" y="970" font-family="Arial" font-size="14">Oatmeal with fruit</text>
  <circle cx="260" cy="965" r="10" fill="#f6f6f6"/>
  
  <rect x="70" y="1000" width="210" height="50" fill="#fff" stroke="#eee" stroke-width="1" rx="5" ry="5"/>
  <text x="90" y="1030" font-family="Arial" font-size="14">Not listed, search...</text>
  <circle cx="260" cy="1025" r="10" fill="#f6f6f6"/>
  
  <!-- Continue button -->
  <rect x="70" y="1060" width="210" height="40" fill="#5cb9a7" rx="20" ry="20"/>
  <text x="175" y="1085" font-family="Arial" font-size="14" text-anchor="middle" fill="white">Continue</text>
  
  <!-- Bottom Nav -->
  <rect x="50" y="1100" width="250" height="50" fill="#f6f6f6" rx="15" ry="15"/>
  <circle cx="100" cy="1125" r="15" fill="#eee"/>
  <circle cx="175" cy="1125" r="15" fill="#5cb9a7"/>
  <circle cx="250" cy="1125" r="15" fill="#eee"/>
  
  <!-- Portion Size Selection -->
  <rect x="350" y="650" width="250" height="450" fill="white" stroke="#5cb9a7" stroke-width="2" rx="15" ry="15"/>
  <text x="475" y="680" font-family="Arial" font-size="16" text-anchor="middle" font-weight="bold">Select Portion</text>
  
  <!-- Header with back button -->
  <circle cx="380" cy="680" r="15" fill="#f6f6f6"/>
  <text x="380" y="685" font-family="Arial" font-size="14" text-anchor="middle">←</text>
  
  <text x="475" y="710" font-family="Arial" font-size="14" text-anchor="middle">Oatmeal, plain</text>
  
  <!-- Portion selection -->
  <text x="370" y="740" font-family="Arial" font-size="14">Serving Size</text>
  <rect x="370" y="750" width="170" height="40" fill="#f6f6f6" rx="5" ry="5"/>
  <text x="390" y="775" font-family="Arial" font-size="14">1 cup (240g)</text>
  
  <rect x="550" y="750" width="30" height="40" fill="#f6f6f6" rx="5" ry="5"/>
  <text x="565" y="775" font-family="Arial" font-size="14" text-anchor="middle">▼</text>
  
  <!-- Quantity adjustment -->
  <text x="370" y="810" font-family="Arial" font-size="14">Quantity</text>
  <rect x="370" y="820" width="210" height="40" fill="#f6f6f6" rx="5" ry="5"/>
  <circle cx="390" cy="840" r="12" fill="#eee"/>
  <text x="390" y="845" font-family="Arial" font-size="14" text-anchor="middle">-</text>
  <text x="475" y="845" font-family="Arial" font-size="16" text-anchor="middle">1</text>
  <circle cx="560" cy="840" r="12" fill="#5cb9a7"/>
  <text x="560" y="845" font-family="Arial" font-size="14" text-anchor="middle" fill="white">+</text>
  
  <!-- Nutrition preview -->
  <text x="370" y="880" font-family="Arial" font-size="14" font-weight="bold">Nutrition Preview</text>
  <rect x="370" y="890" width="210" height="100" fill="#f6f6f6" rx="10" ry="10"/>
  
  <text x="390" y="915" font-family="Arial" font-size="12">Calories:</text>
  <text x="560" y="915" font-family="Arial" font-size="12" text-anchor="end">158 kcal</text>
  
  <text x="390" y="935" font-family="Arial" font-size="12">Carbs:</text>
  <text x="560" y="935" font-family="Arial" font-size="12" text-anchor="end">27g (9%)</text>
  
  <text x="390" y="955" font-family="Arial" font-size="12">Protein:</text>
  <text x="560" y="955" font-family="Arial" font-size="12" text-anchor="end">6g (12%)</text>
  
  <text x="390" y="975" font-family="Arial" font-size="12">Fat:</text>
  <text x="560" y="975" font-family="Arial" font-size="12" text-anchor="end">3g (5%)</text>
  
  <!-- Continue button -->
  <rect x="370" y="1000" width="210" height="40" fill="#5cb9a7" rx="20" ry="20"/>
  <text x="475" y="1025" font-family="Arial" font-size="14" text-anchor="middle" fill="white">Confirm</text>
  
  <!-- Custom entry button -->
  <rect x="370" y="1050" width="210" height="40" fill="#f6f6f6" rx="20" ry="20"/>
  <text x="475" y="1075" font-family="Arial" font-size="14" text-anchor="middle">Enter Custom Portion</text>
  
  <!-- Bottom Nav -->
  <rect x="350" y="1100" width="250" height="50" fill="#f6f6f6" rx="15" ry="15"/>
  <circle cx="400" cy="1125" r="15" fill="#eee"/>
  <circle cx="475" cy="1125" r="15" fill="#5cb9a7"/>
  <circle cx="550" cy="1125" r="15" fill="#eee"/>
  
  <!-- Nutritional Information -->
  <rect x="650" y="650" width="250" height="450" fill="white" stroke="#5cb9a7" stroke-width="2" rx="15" ry="15"/>
  <text x="775" y="680" font-family="Arial" font-size="16" text-anchor="middle" font-weight="bold">Nutritional Information</text>
  
  <!-- Header with back button -->
  <circle cx="680" cy="680" r="15" fill="#f6f6f6"/>
  <text x="680" y="685" font-family="Arial" font-size="14" text-anchor="middle">←</text>
  
  <text x="775" y="710" font-family="Arial" font-size="14" text-anchor="middle">Oatmeal, plain (1 cup)</text>
  
  <!-- Nutrition facts -->
  <rect x="670" y="730" width="210" height="310" fill="#f6f6f6" rx="10" ry="10"/>
  <text x="680" y="750" font-family="Arial" font-size="14" font-weight="bold">Nutrition Facts</text>
  <line x1="670" y1="760" x2="880" y2="760" stroke="#ddd" stroke-width="1"/>
  
  <text x="680" y="780" font-family="Arial" font-size="14">Calories 158</text>
  <line x1="670" y1="790" x2="880" y2="790" stroke="#ddd" stroke-width="1"/>
  
  <text x="680" y="810" font-family="Arial" font-size="12" font-weight="bold">% Daily Value*</text>
  <line x1="670" y1="820" x2="880" y2="820" stroke="#ddd" stroke-width="1"/>
  
  <text x="680" y="840" font-family="Arial" font-size="12">Total Fat 3g</text>
  <text x="860" y="840" font-family="Arial" font-size="12" text-anchor="end">5%</text>
  <line x1="670" y1="850" x2="880" y2="850" stroke="#ddd" stroke-width="1" stroke-dasharray="2,2"/>
  
  <text x="695" y="870" font-family="Arial" font-size="12">Saturated Fat 0.5g</text>
  <text x="860" y="870" font-family="Arial" font-size="12" text-anchor="end">3%</text>
  <line x1="670" y1="880" x2="880" y2="880" stroke="#ddd" stroke-width="1" stroke-dasharray="2,2"/>
  
  <text x="680" y="900" font-family="Arial" font-size="12">Cholesterol 0mg</text>
  <text x="860" y="900" font-family="Arial" font-size="12" text-anchor="end">0%</text>
  <line x1="670" y1="910" x2="880" y2="910" stroke="#ddd" stroke-width="1"/>
  
  <text x="680" y="930" font-family="Arial" font-size="12">Sodium 2mg</text>
  <text x="860" y="930" font-family="Arial" font-size="12" text-anchor="end">0%</text>
  <line x1="670" y1="940" x2="880" y2="940" stroke="#ddd" stroke-width="1"/>
  
  <text x="680" y="960" font-family="Arial" font-size="12">Total Carbs 27g</text>
  <text x="860" y="960" font-family="Arial" font-size="12" text-anchor="end">9%</text>
  <line x1="670" y1="970" x2="880" y2="970" stroke="#ddd" stroke-width="1" stroke-dasharray="2,2"/>
  
  <text x="695" y="990" font-family="Arial" font-size="12">Dietary Fiber 4g</text>
  <text x="860" y="990" font-family="Arial" font-size="12" text-anchor="end">14%</text>
  <line x1="670" y1="1000" x2="880" y2="1000" stroke="#ddd" stroke-width="1" stroke-dasharray="2,2"/>
  
  <text x="695" y="1020" font-family="Arial" font-size="12">Total Sugars 1g</text>
  <line x1="670" y1="1030" x2="880" y2="1030" stroke="#ddd" stroke-width="1"/>
  
  <text x="680" y="1050" font-family="Arial" font-size="12">Protein 6g</text>
  <text x="860" y="1050" font-family="Arial" font-size="12" text-anchor="end">12%</text>
  
  <!-- Action buttons -->
  <rect x="670" y="1050" width="210" height="40" fill="#5cb9a7" rx="20" ry="20"/>
  <text x="775" y="1075" font-family="Arial" font-size="14" text-anchor="middle" fill="white">Add to Meal Log</text>
  
  <!-- Bottom Nav -->
  <rect x="650" y="1100" width="250" height="50" fill="#f6f6f6" rx="15" ry="15"/>
  <circle cx="700" cy="1125" r="15" fill="#eee"/>
  <circle cx="775" cy="1125" r="15" fill="#5cb9a7"/>
  <circle cx="850" cy="1125" r="15" fill="#eee"/>
  
  <!-- Add to Meal Log -->
  <rect x="50" y="1200" width="250" height="450" fill="white" stroke="#5cb9a7" stroke-width="2" rx="15" ry="15"/>
  <text x="175" y="1230" font-family="Arial" font-size="16" text-anchor="middle" font-weight="bold">Add to Meal Log</text>
  
  <!-- Header with back button -->
  <circle cx="80" cy="1230" r="15" fill="#f6f6f6"/>
  <text x="80" y="1235" font-family="Arial" font-size="14" text-anchor="middle">←</text>
  
  <text x="175" y="1260" font-family="Arial" font-size="14" text-anchor="middle">Oatmeal, plain (1 cup)</text>
  
  <!-- Food summary -->
  <rect x="70" y="1280" width="210" height="70" fill="#eaf5f3" rx="10" ry="10"/>
  <text x="90" y="1305" font-family="Arial" font-size="14" font-weight="bold">158 calories</text>
  <text x="90" y="1330" font-family="Arial" font-size="12">Carbs: 27g • Protein: 6g • Fat: 3g</text>
  
  <!-- Add details form -->
  <text x="70" y="1370" font-family="Arial" font-size="14">Child</text>
  <rect x="70" y="1380" width="210" height="40" fill="#f6f6f6" rx="5" ry="5"/>
  <text x="90" y="1405" font-family="Arial" font-size="14">Emma</text>
  <text x="260" y="1405" font-family="Arial" font-size="14" text-anchor="end">▼</text>
  
  <text x="70" y="1440" font-family="Arial" font-size="14">Meal Type</text>
  <rect x="70" y="1450" width="210" height="40" fill="#f6f6f6" rx="5" ry="5"/>
  <text x="90" y="1475" font-family="Arial" font-size="14">Breakfast</text>
  <text x="260" y="1475" font-family="Arial" font-size="14" text-anchor="end">▼</text>
  
  <text x="70" y="1510" font-family="Arial" font-size="14">Date &amp; Time</text>
  <rect x="70" y="1520" width="210" height="40" fill="#f6f6f6" rx="5" ry="5"/>
  <text x="90" y="1545" font-family="Arial" font-size="14">March 16, 2025 • 8:30 AM</text>
  
  <!-- Save button -->
  <rect x="70" y="1580" width="210" height="40" fill="#5cb9a7" rx="20" ry="20"/>
  <text x="175" y="1605" font-family="Arial" font-size="14" text-anchor="middle" fill="white">Save to Meal Log</text>
  
  <!-- Bottom Nav -->
  <rect x="50" y="1630" width="250" height="50" fill="#f6f6f6" rx="15" ry="15"/>
  <circle cx="100" cy="1655" r="15" fill="#eee"/>
  <circle cx="175" cy="1655" r="15" fill="#5cb9a7"/>
  <circle cx="250" cy="1655" r="15" fill="#eee"/>
  
  <!-- Meal Log Confirmation -->
  <rect x="350" y="1200" width="250" height="450" fill="white" stroke="#5cb9a7" stroke-width="2" rx="15" ry="15"/>
  <text x="475" y="1230" font-family="Arial" font-size="16" text-anchor="middle" font-weight="bold">Meal Log Updated</text>
  
  <!-- Success message -->
  <circle cx="475" cy="1300" r="40" fill="#eaf5f3"/>
  <text x="475" y="1315" font-family="Arial" font-size="30" text-anchor="middle" fill="#5cb9a7">✓</text>
  
  <text x="475" y="1370" font-family="Arial" font-size="16" text-anchor="middle" font-weight="bold">Success!</text>
  <text x="475" y="1400" font-family="Arial" font-size="14" text-anchor="middle">Meal has been added to</text>
  <text x="475" y="1425" font-family="Arial" font-size="14" text-anchor="middle">Emma's breakfast log</text>
  
  <!-- Action buttons -->
  <rect x="370" y="1460" width="210" height="40" fill="#5cb9a7" rx="20" ry="20"/>
  <text x="475" y="1485" font-family="Arial" font-size="14" text-anchor="middle" fill="white">View Meal Log</text>
  
  <rect x="370" y="1510" width="210" height="40" fill="#fff" stroke="#5cb9a7" stroke-width="2" rx="20" ry="20"/>
  <text x="475" y="1535" font-family="Arial" font-size="14" text-anchor="middle" fill="#5cb9a7">Scan Another Item</text>
  
  <rect x="370" y="1560" width="210" height="40" fill="#f6f6f6" rx="20" ry="20"/>
  <text x="475" y="1585" font-family="Arial" font-size="14" text-anchor="middle">Done</text>
  
  <!-- Bottom Nav -->
  <rect x="350" y="1630" width="250" height="50" fill="#f6f6f6" rx="15" ry="15"/>
  <circle cx="400" cy="1655" r="15" fill="#eee"/>
  <circle cx="475" cy="1655" r="15" fill="#5cb9a7"/>
  <circle cx="550" cy="1655" r="15" fill="#eee"/>
  
  <!-- Navigation Arrows -->
  <!-- From Dashboard to Camera -->
  <path d="M 300 210 L 325 210 L 325 210 L 350 210" stroke="#5cb9a7" stroke-width="2" fill="none" marker-end="url(#arrow)"/>
  
  <!-- From Camera to Processing -->
  <path d="M 600 450 L 625 450 L 625 450 L 650 450" stroke="#5cb9a7" stroke-width="2" fill="none" marker-end="url(#arrow)"/>
  
  <!-- From Processing to Food Identified -->
  <path d="M 650 380 L 625 380 L 625 580 L 175 580 L 175 650" stroke="#5cb9a7" stroke-width="2" fill="none" marker-end="url(#arrow)"/>
  
  </svg>