<svg width="1000" height="1600" xmlns="http://www.w3.org/2000/svg" viewBox="0 0 1000 1600">
  <!-- Background -->
  <rect width="1000" height="1600" fill="#f8f9fa"/>
  <text x="500" y="50" font-family="Arial" font-size="24" text-anchor="middle" font-weight="bold">NutriGenius Growth Monitoring Flow</text>
  
  <!-- Growth Dashboard -->
  <rect x="50" y="100" width="250" height="450" fill="white" stroke="#5cb9a7" stroke-width="2" rx="15" ry="15"/>
  <text x="175" y="130" font-family="Arial" font-size="16" text-anchor="middle" font-weight="bold">Growth Dashboard</text>
  
  <!-- Header with back button and child selection -->
  <circle cx="80" cy="130" r="15" fill="#f6f6f6"/>
  <text x="80" y="135" font-family="Arial" font-size="14" text-anchor="middle">←</text>
  
  <!-- Child selection dropdown -->
  <rect x="120" y="120" width="140" height="25" fill="#f6f6f6" rx="12" ry="12"/>
  <text x="170" y="137" font-family="Arial" font-size="12" text-anchor="middle">Emma, 3y 4m ▼</text>
  
  <!-- Growth summary -->
  <rect x="70" y="160" width="210" height="100" fill="#eaf5f3" rx="10" ry="10"/>
  <text x="175" y="180" font-family="Arial" font-size="14" text-anchor="middle" font-weight="bold">Current Measurements</text>
  
  <text x="95" y="205" font-family="Arial" font-size="12">Height:</text>
  <text x="210" y="205" font-family="Arial" font-size="12" text-anchor="end">98 cm (75th)</text>
  
  <text x="95" y="225" font-family="Arial" font-size="12">Weight:</text>
  <text x="210" y="225" font-family="Arial" font-size="12" text-anchor="end">15.2 kg (60th)</text>
  
  <text x="95" y="245" font-family="Arial" font-size="12">BMI:</text>
  <text x="210" y="245" font-family="Arial" font-size="12" text-anchor="end">15.8 (50th)</text>
  
  <!-- Last updated -->
  <text x="175" y="265" font-family="Arial" font-size="10" text-anchor="middle" fill="#888">Last updated: March 10, 2025</text>
  
  <!-- Growth chart preview -->
  <rect x="70" y="270" width="210" height="140" fill="#f6f6f6" rx="10" ry="10"/>
  <text x="175" y="290" font-family="Arial" font-size="12" text-anchor="middle">Height Chart (cm)</text>
  
  <!-- Simple chart visualization -->
  <polyline points="90,380 130,360 170,330 210,310" stroke="#5cb9a7" stroke-width="2" fill="none"/>
  <line x1="90" y1="380" x2="210" y2="380" stroke="#ccc" stroke-width="1"/>
  <line x1="90" y1="350" x2="210" y2="350" stroke="#ccc" stroke-width="1" stroke-dasharray="2,2"/>
  <line x1="90" y1="320" x2="210" y2="320" stroke="#ccc" stroke-width="1" stroke-dasharray="2,2"/>
  
  <!-- Quick actions -->
  <rect x="70" y="420" width="100" height="40" fill="#5cb9a7" rx="20" ry="20"/>
  <text x="120" y="445" font-family="Arial" font-size="12" text-anchor="middle" fill="white">Add New</text>
  
  <rect x="180" y="420" width="100" height="40" fill="white" stroke="#5cb9a7" stroke-width="2" rx="20" ry="20"/>
  <text x="230" y="445" font-family="Arial" font-size="12" text-anchor="middle" fill="#5cb9a7">History</text>
  
  <!-- Navigation bar -->
  <rect x="50" y="550" width="250" height="50" fill="#f6f6f6" rx="15" ry="15"/>
  <circle cx="100" cy="575" r="15" fill="#5cb9a7"/>
  <circle cx="175" cy="575" r="15" fill="#eee"/>
  <circle cx="250" cy="575" r="15" fill="#eee"/>
  
  <!-- Growth Charts View -->
  <rect x="350" y="100" width="250" height="450" fill="white" stroke="#5cb9a7" stroke-width="2" rx="15" ry="15"/>
  <text x="475" y="130" font-family="Arial" font-size="16" text-anchor="middle" font-weight="bold">Growth Charts</text>
  
  <!-- Header with back button -->
  <circle cx="380" cy="130" r="15" fill="#f6f6f6"/>
  <text x="380" y="135" font-family="Arial" font-size="14" text-anchor="middle">←</text>
  
  <!-- Chart tabs -->
  <rect x="370" y="160" width="60" height="30" fill="#5cb9a7" rx="15" ry="15"/>
  <text x="400" y="180" font-family="Arial" font-size="12" text-anchor="middle" fill="white">Height</text>
  
  <rect x="435" y="160" width="60" height="30" fill="#f6f6f6" rx="15" ry="15"/>
  <text x="465" y="180" font-family="Arial" font-size="12" text-anchor="middle">Weight</text>
  
  <rect x="500" y="160" width="60" height="30" fill="#f6f6f6" rx="15" ry="15"/>
  <text x="530" y="180" font-family="Arial" font-size="12" text-anchor="middle">BMI</text>
  
  <!-- Main chart area -->
  <rect x="370" y="200" width="210" height="250" fill="#f6f6f6" rx="10" ry="10"/>
  
  <!-- Chart visualization -->
  <polyline points="390,410 420,390 450,370 480,350 510,330 540,310" stroke="#5cb9a7" stroke-width="2" fill="none"/>
  <polyline points="390,410 420,400 450,385 480,375 510,355 540,345" stroke="#f8d64e" stroke-width="2" fill="none" stroke-dasharray="3,2"/>
  <polyline points="390,410 420,380 450,360 480,330 510,310 540,280" stroke="#3498db" stroke-width="2" fill="none" stroke-dasharray="3,2"/>
  
  <!-- Chart grid -->
  <line x1="390" y1="410" x2="390" y2="250" stroke="#ccc" stroke-width="1"/>
  <line x1="390" y1="410" x2="540" y2="410" stroke="#ccc" stroke-width="1"/>
  <line x1="390" y1="380" x2="540" y2="380" stroke="#ccc" stroke-width="1" stroke-dasharray="2,2"/>
  <line x1="390" y1="350" x2="540" y2="350" stroke="#ccc" stroke-width="1" stroke-dasharray="2,2"/>
  <line x1="390" y1="320" x2="540" y2="320" stroke="#ccc" stroke-width="1" stroke-dasharray="2,2"/>
  <line x1="390" y1="290" x2="540" y2="290" stroke="#ccc" stroke-width="1" stroke-dasharray="2,2"/>
  <line x1="390" y1="260" x2="540" y2="260" stroke="#ccc" stroke-width="1" stroke-dasharray="2,2"/>
  
  <!-- Chart legend -->
  <rect x="370" y="460" width="210" height="60" fill="#fff" rx="5" ry="5" stroke="#eee" stroke-width="1"/>
  <line x1="390" y1="480" x2="410" y2="480" stroke="#5cb9a7" stroke-width="2"/>
  <text x="420" y="485" font-family="Arial" font-size="12">Your child</text>
  
  <line x1="390" y1="500" x2="410" y2="500" stroke="#f8d64e" stroke-width="2" stroke-dasharray="3,2"/>
  <text x="420" y="505" font-family="Arial" font-size="12">50th percentile</text>
  
  <line x1="480" y1="480" x2="500" y2="480" stroke="#3498db" stroke-width="2" stroke-dasharray="3,2"/>
  <text x="510" y="485" font-family="Arial" font-size="12">95th</text>
  
  <line x1="480" y1="500" x2="500" y2="500" stroke="#3498db" stroke-width="2" stroke-dasharray="3,2"/>
  <text x="510" y="505" font-family="Arial" font-size="12">5th</text>
  
  <!-- Navigation bar -->
  <rect x="350" y="550" width="250" height="50" fill="#f6f6f6" rx="15" ry="15"/>
  <circle cx="400" cy="575" r="15" fill="#5cb9a7"/>
  <circle cx="475" cy="575" r="15" fill="#eee"/>
  <circle cx="550" cy="575" r="15" fill="#eee"/>
  
  <!-- Add Measurement -->
  <rect x="650" y="100" width="250" height="450" fill="white" stroke="#5cb9a7" stroke-width="2" rx="15" ry="15"/>
  <text x="775" y="130" font-family="Arial" font-size="16" text-anchor="middle" font-weight="bold">Add Measurement</text>
  
  <!-- Header with back button -->
  <circle cx="680" cy="130" r="15" fill="#f6f6f6"/>
  <text x="680" y="135" font-family="Arial" font-size="14" text-anchor="middle">←</text>
  
  <!-- Measurement type selection -->
  <text x="670" y="170" font-family="Arial" font-size="14">Measurement Type</text>
  
  <rect x="670" y="180" width="210" height="50" fill="#eaf5f3" rx="5" ry="5"/>
  <text x="690" y="210" font-family="Arial" font-size="14">Height/Length</text>
  <circle cx="860" cy="205" r="10" fill="#5cb9a7"/>
  <text x="860" y="210" font-family="Arial" font-size="14" text-anchor="middle" fill="white">✓</text>
  
  <rect x="670" y="240" width="210" height="50" fill="#fff" stroke="#eee" stroke-width="1" rx="5" ry="5"/>
  <text x="690" y="270" font-family="Arial" font-size="14">Weight</text>
  <circle cx="860" cy="265" r="10" fill="#f6f6f6"/>
  
  <rect x="670" y="300" width="210" height="50" fill="#fff" stroke="#eee" stroke-width="1" rx="5" ry="5"/>
  <text x="690" y="330" font-family="Arial" font-size="14">Head Circumference</text>
  <circle cx="860" cy="325" r="10" fill="#f6f6f6"/>
  
  <!-- Measurement input -->
  <text x="670" y="380" font-family="Arial" font-size="14">Value</text>
  <rect x="670" y="390" width="150" height="40" fill="#f6f6f6" rx="5" ry="5"/>
  <text x="690" y="415" font-family="Arial" font-size="14">98.5</text>
  
  <rect x="830" y="390" width="50" height="40" fill="#f6f6f6" rx="5" ry="5"/>
  <text x="855" y="415" font-family="Arial" font-size="14" text-anchor="middle">cm</text>
  
  <!-- Date selection -->
  <text x="670" y="450" font-family="Arial" font-size="14">Date</text>
  <rect x="670" y="460" width="210" height="40" fill="#f6f6f6" rx="5" ry="5"/>
  <text x="690" y="485" font-family="Arial" font-size="14">March 16, 2025</text>
  
  <!-- Save button -->
  <rect x="670" y="510" width="210" height="40" fill="#5cb9a7" rx="20" ry="20"/>
  <text x="775" y="535" font-family="Arial" font-size="14" text-anchor="middle" fill="white">Save Measurement</text>
  
  <!-- Navigation bar -->
  <rect x="650" y="550" width="250" height="50" fill="#f6f6f6" rx="15" ry="15"/>
  <circle cx="700" cy="575" r="15" fill="#5cb9a7"/>
  <circle cx="775" cy="575" r="15" fill="#eee"/>
  <circle cx="850" cy="575" r="15" fill="#eee"/>
  
  <!-- Measurement History -->
  <rect x="50" y="650" width="250" height="450" fill="white" stroke="#5cb9a7" stroke-width="2" rx="15" ry="15"/>
  <text x="175" y="680" font-family="Arial" font-size="16" text-anchor="middle" font-weight="bold">Measurement History</text>
  
  <!-- Header with back button -->
  <circle cx="80" cy="680" r="15" fill="#f6f6f6"/>
  <text x="80" y="685" font-family="Arial" font-size="14" text-anchor="middle">←</text>
  
  <!-- Filter tabs -->
  <rect x="70" y="700" width="70" height="30" fill="#5cb9a7" rx="15" ry="15"/>
  <text x="105" y="720" font-family="Arial" font-size="12" text-anchor="middle" fill="white">All</text>
  
  <rect x="145" y="700" width="70" height="30" fill="#f6f6f6" rx="15" ry="15"/>
  <text x="180" y="720" font-family="Arial" font-size="12" text-anchor="middle">Height</text>
  
  <rect x="220" y="700" width="70" height="30" fill="#f6f6f6" rx="15" ry="15"/>
  <text x="255" y="720" font-family="Arial" font-size="12" text-anchor="middle">Weight</text>
  
  <!-- Measurement list -->
  <rect x="70" y="740" width="210" height="70" fill="#fff" stroke="#eee" stroke-width="1" rx="10" ry="10"/>
  <circle cx="95" cy="775" r="15" fill="#eaf5f3"/>
  <text x="95" y="780" font-family="Arial" font-size="12" text-anchor="middle">H</text>
  <text x="120" y="765" font-family="Arial" font-size="14">Height</text>
  <text x="120" y="785" font-family="Arial" font-size="12">98.5 cm</text>
  <text x="250" y="775" font-family="Arial" font-size="12" text-anchor="end">Mar 16</text>
  
  <rect x="70" y="820" width="210" height="70" fill="#fff" stroke="#eee" stroke-width="1" rx="10" ry="10"/>
  <circle cx="95" cy="855" r="15" fill="#eaf5f3"/>
  <text x="95" y="860" font-family="Arial" font-size="12" text-anchor="middle">W</text>
  <text x="120" y="845" font-family="Arial" font-size="14">Weight</text>
  <text x="120" y="865" font-family="Arial" font-size="12">15.2 kg</text>
  <text x="250" y="855" font-family="Arial" font-size="12" text-anchor="end">Mar 10</text>
  
  <rect x="70" y="900" width="210" height="70" fill="#fff" stroke="#eee" stroke-width="1" rx="10" ry="10"/>
  <circle cx="95" cy="935" r="15" fill="#eaf5f3"/>
  <text x="95" y="940" font-family="Arial" font-size="12" text-anchor="middle">H</text>
  <text x="120" y="925" font-family="Arial" font-size="14">Height</text>
  <text x="120" y="945" font-family="Arial" font-size="12">98 cm</text>
  <text x="250" y="935" font-family="Arial" font-size="12" text-anchor="end">Mar 10</text>
  
  <rect x="70" y="980" width="210" height="70" fill="#fff" stroke="#eee" stroke-width="1" rx="10" ry="10"/>
  <circle cx="95" cy="1015" r="15" fill="#eaf5f3"/>
  <text x="95" y="1020" font-family="Arial" font-size="12" text-anchor="middle">W</text>
  <text x="120" y="1005" font-family="Arial" font-size="14">Weight</text>
  <text x="120" y="1025" font-family="Arial" font-size="12">15 kg</text>
  <text x="250" y="1015" font-family="Arial" font-size="12" text-anchor="end">Feb 15</text>
  
  <!-- Navigation bar -->
  <rect x="50" y="1100" width="250" height="50" fill="#f6f6f6" rx="15" ry="15"/>
  <circle cx="100" cy="1125" r="15" fill="#5cb9a7"/>
  <circle cx="175" cy="1125" r="15" fill="#eee"/>
  <circle cx="250" cy="1125" r="15" fill="#eee"/>
  
  <!-- Measurement Detail -->
  <rect x="350" y="650" width="250" height="450" fill="white" stroke="#5cb9a7" stroke-width="2" rx="15" ry="15"/>
  <text x="475" y="680" font-family="Arial" font-size="16" text-anchor="middle" font-weight="bold">Measurement Detail</text>
  
  <!-- Header with back button -->
  <circle cx="380" cy="680" r="15" fill="#f6f6f6"/>
  <text x="380" y="685" font-family="Arial" font-size="14" text-anchor="middle">←</text>
  
  <!-- Measurement info -->
  <rect x="370" y="710" width="210" height="120" fill="#eaf5f3" rx="10" ry="10"/>
  <text x="475" y="740" font-family="Arial" font-size="18" text-anchor="middle" font-weight="bold">98.5 cm</text>
  <text x="475" y="765" font-family="Arial" font-size="14" text-anchor="middle">Height</text>
  <text x="475" y="790" font-family="Arial" font-size="14" text-anchor="middle">March 16, 2025</text>
  <text x="475" y="810" font-family="Arial" font-size="12" text-anchor="middle">75th percentile</text>
  
  <!-- Measurement context -->
  <text x="370" y="850" font-family="Arial" font-size="14" font-weight="bold">Growth Status</text>
  <rect x="370" y="860" width="210" height="60" fill="#f6f6f6" rx="5" ry="5"/>
  <text x="380" y="880" font-family="Arial" font-size="12">Growth Trend:</text>
  <text x="560" y="880" font-family="Arial" font-size="12" text-anchor="end" fill="#5cb9a7">Normal</text>
  <text x="380" y="900" font-family="Arial" font-size="12">Percentile Change:</text>
  <text x="560" y="900" font-family="Arial" font-size="12" text-anchor="end">+5 since last</text>
  
  <!-- Notes -->
  <text x="370" y="940" font-family="Arial" font-size="14" font-weight="bold">Notes</text>
  <rect x="370" y="950" width="210" height="80" fill="#f6f6f6" rx="5" ry="5"/>
  <text x="380" y="970" font-family="Arial" font-size="12">Measured at pediatrician's office</text>
  <text x="380" y="990" font-family="Arial" font-size="12">during regular checkup.</text>
  
  <!-- Action buttons -->
  <rect x="370" y="1040" width="100" height="40" fill="#5cb9a7" rx="20" ry="20"/>
  <text x="420" y="1065" font-family="Arial" font-size="12" text-anchor="middle" fill="white">Edit</text>
  
  <rect x="480" y="1040" width="100" height="40" fill="#fff" stroke="#ff6b6b" stroke-width="2" rx="20" ry="20"/>
  <text x="530" y="1065" font-family="Arial" font-size="12" text-anchor="middle" fill="#ff6b6b">Delete</text>
  
  <!-- Navigation bar -->
  <rect x="350" y="1100" width="250" height="50" fill="#f6f6f6" rx="15" ry="15"/>
  <circle cx="400" cy="1125" r="15" fill="#5cb9a7"/>
  <circle cx="475" cy="1125" r="15" fill="#eee"/>
  <circle cx="550" cy="1125" r="15" fill="#eee"/>
  
  <!-- Growth Assessment -->
  <rect x="650" y="650" width="250" height="450" fill="white" stroke="#5cb9a7" stroke-width="2" rx="15" ry="15"/>
  <text x="775" y="680" font-family="Arial" font-size="16" text-anchor="middle" font-weight="bold">Growth Assessment</text>
  
  <!-- Header with back button -->
  <circle cx="680" cy="680" r="15" fill="#f6f6f6"/>
  <text x="680" y="685" font-family="Arial" font-size="14" text-anchor="middle">←</text>
  
  <!-- Assessment summary -->
  <rect x="670" y="710" width="210" height="80" fill="#eaf5f3" rx="10" ry="10"/>
  <text x="775" y="740" font-family="Arial" font-size="16" text-anchor="middle" font-weight="bold">Normal Growth</text>
  <text x="775" y="765" font-family="Arial" font-size="12" text-anchor="middle">Emma is growing well within</text>
  <text x="775" y="780" font-family="Arial" font-size="12" text-anchor="middle">expected patterns</text>
  
  <!-- Growth metrics -->
  <text x="670" y="810" font-family="Arial" font-size="14" font-weight="bold">Growth Metrics</text>
  
  <rect x="670" y="825" width="210" height="120" fill="#f6f6f6" rx="5" ry="5"/>
  <text x="690" y="845" font-family="Arial" font-size="12">Height-for-age:</text>
  <text x="850" y="845" font-family="Arial" font-size="12" text-anchor="end" fill="#5cb9a7">75th</text>
  <rect x="690" y="855" width="140" height="6" fill="#ddd" rx="3" ry="3"/>
  <rect x="690" y="855" width="105" height="6" fill="#5cb9a7" rx="3" ry="3"/>
  
  <text x="690" y="880" font-family="Arial" font-size="12">Weight-for-age:</text>
  <text x="850" y="880" font-family="Arial" font-size="12" text-anchor="end" fill="#5cb9a7">60th</text>
  <rect x="690" y="890" width="140" height="6" fill="#ddd" rx="3" ry="3"/>
  <rect x="690" y="890" width="84" height="6" fill="#5cb9a7" rx="3" ry="3"/>
  
  <text x="690" y="915" font-family="Arial" font-size="12">BMI-for-age:</text>
  <text x="850" y="915" font-family="Arial" font-size="12" text-anchor="end" fill="#5cb9a7">50th</text>
  <rect x="690" y="925" width="140" height="6" fill="#ddd" rx="3" ry="3"/>
  <rect x="690" y="925" width="70" height="6" fill="#5cb9a7" rx="3" ry="3"/>
  
  <!-- Recommendations -->
  <text x="670" y="965" font-family="Arial" font-size="14" font-weight="bold">Recommendations</text>
  <rect x="670" y="980" width="210" height="100" fill="#f6f6f6" rx="5" ry="5"/>
  <text x="680" y="1000" font-family="Arial" font-size="12">• Continue balanced nutrition</text>
  <text x="680" y="1020" font-family="Arial" font-size="12">• Ensure adequate calcium intake</text>
  <text x="680" y="1040" font-family="Arial" font-size="12">• Next measurement in 3 months</text>
  <text x="680" y="1060" font-family="Arial" font-size="12">• Regular physical activity</text>
  
  <!-- Navigation bar -->
  <rect x="650" y="1100" width="250" height="50" fill="#f6f6f6" rx="15" ry="15"/>
  <circle cx="700" cy="1125" r="15" fill="#5cb9a7"/>
  <circle cx="775" cy="1125" r="15" fill="#eee"/>
  <circle cx="850" cy="1125" r="15" fill="#eee"/>
  
  <!-- Navigation Arrows -->
  <!-- From Dashboard to Charts -->
  <path d="M 300 270 L 325 270 L 325 270 L 350 270" stroke="#5cb9a7" stroke-width="2" fill="none" marker-end="url(#arrow)"/>
  
  <!-- From Dashboard to Add Measurement -->
  <path d="M 120 445 L 120 480 L 650 480 L 650 350" stroke="#5cb9a7" stroke-width="2" fill="none" marker-end="url(#arrow)"/>
  
  <!-- From Dashboard to History -->
  <path d="M 230 445 L 230 600 L 175 600 L 175 650" stroke="#5cb9a7" stroke-width="2" fill="none" marker-end="url(#arrow)"/>
  
  <!-- From History to Measurement Detail -->
  <path d="M 300 850 L 325 850 L 325 850 L 350 850" stroke="#5cb9a7" stroke-width="2" fill="none" marker-end="url(#arrow)"/>
  
  <!-- From Dashboard to Assessment -->
  <path d="M 175 500 L 175 600 L 775 600 L 775 650" stroke="#5cb9a7" stroke-width="2" fill="none" marker-end="url(#arrow)"/>
  
  <!-- From Measurement Detail to Edit -->
  <path d="M 420 1065 L 420 1150 L 775 1150 L 775 550" stroke="#5cb9a7" stroke-width="2" fill="none" stroke-dasharray="5,5" marker-end="url(#arrow)"/>
  
  <!-- From Add Measurement to Dashboard (success path) -->
  <path d="M 775 550 L 775 580 L 350 580 L 350 350" stroke="#5cb9a7" stroke-width="2" fill="none" stroke-dasharray="5,5" marker-end="url(#arrow)"/>
  
  <defs>
    <marker id="arrow" markerWidth="10" markerHeight="10" refX="9" refY="3" orient="auto">
      <path d="M0,0 L0,6 L9,3 z" fill="#5cb9a7"/>
    </marker>
  </defs>
</svg>